<?xml version="1.0" encoding="UTF-8" standalone="no"?>
<svg
   xmlns:dc="http://purl.org/dc/elements/1.1/"
   xmlns:cc="http://creativecommons.org/ns#"
   xmlns:rdf="http://www.w3.org/1999/02/22-rdf-syntax-ns#"
   xmlns:svg="http://www.w3.org/2000/svg"
   xmlns="http://www.w3.org/2000/svg"
   xmlns:sodipodi="http://sodipodi.sourceforge.net/DTD/sodipodi-0.dtd"
   xmlns:inkscape="http://www.inkscape.org/namespaces/inkscape"
   version="1.1"
   id="layer"
   x="0px"
   y="0px"
   viewBox="0 0 602 302"
   xml:space="preserve"
   sodipodi:docname="ifad-logo-white.svg"
   inkscape:version="1.0.1 (0767f8302a, 2020-10-17)"
   width="602"
   height="302"><metadata
   id="metadata81"><rdf:RDF><cc:Work
       rdf:about=""><dc:format>image/svg+xml</dc:format><dc:type
         rdf:resource="http://purl.org/dc/dcmitype/StillImage" /><dc:title></dc:title></cc:Work></rdf:RDF></metadata><defs
   id="defs79" /><sodipodi:namedview
   pagecolor="#ffffff"
   bordercolor="#666666"
   borderopacity="1"
   objecttolerance="10"
   gridtolerance="10"
   guidetolerance="10"
   inkscape:pageopacity="0"
   inkscape:pageshadow="2"
   inkscape:window-width="1855"
   inkscape:window-height="1056"
   id="namedview77"
   showgrid="false"
   inkscape:zoom="1.3880368"
   inkscape:cx="275.72656"
   inkscape:cy="306.43176"
   inkscape:window-x="65"
   inkscape:window-y="24"
   inkscape:window-maximized="1"
   inkscape:current-layer="layer"
   inkscape:document-rotation="0" />
<style
   type="text/css"
   id="style2">
	.st0{fill:#003870;}
</style>
<g
   id="g74"
   style="fill:#ffffff"
   transform="translate(-19.803148,-169.52663)">
	<g
   id="g48"
   style="fill:#ffffff">
		<path
   class="st0"
   d="m 20.7,418.3 h 5.4 v 40.9 h -5.4 z"
   id="path4"
   style="fill:#ffffff" />
		<path
   class="st0"
   d="m 34.3,429.6 h 4.6 v 4.7 H 39 c 2.1,-3.7 5.4,-5.4 9.6,-5.4 7.8,0 10.2,4.5 10.2,10.8 v 19.5 H 54 v -20.1 c 0,-3.6 -2.3,-6 -6,-6 -5.9,0 -8.8,4 -8.8,9.3 v 16.7 h -4.9 z"
   id="path6"
   style="fill:#ffffff" />
		<path
   class="st0"
   d="m 79.3,459.2 h -5.2 l -11,-29.6 h 5.4 l 8.3,24.7 H 77 l 8.1,-24.7 h 5.1 z"
   id="path8"
   style="fill:#ffffff" />
		<path
   class="st0"
   d="m 119.7,449.8 c -1.3,6.5 -6,10.1 -12.7,10.1 -9.4,0 -13.9,-6.5 -14.2,-15.6 0,-8.9 5.8,-15.4 13.9,-15.4 10.5,0 13.7,9.8 13.4,17 H 98 c -0.2,5.2 2.8,9.7 9.2,9.7 4,0 6.8,-1.9 7.7,-5.8 0,0 4.8,0 4.8,0 z m -4.7,-8.2 c -0.2,-4.6 -3.7,-8.4 -8.5,-8.4 -5.1,0 -8.1,3.8 -8.5,8.4 z"
   id="path10"
   style="fill:#ffffff" />
		<path
   class="st0"
   d="m 127.9,449.9 c 0.2,4.4 4,5.7 8,5.7 3,0 7.2,-0.7 7.2,-4.4 0,-3.8 -4.8,-4.4 -9.7,-5.5 -4.8,-1.1 -9.7,-2.7 -9.7,-8.4 0,-6 5.9,-8.4 11.1,-8.4 6.5,0 11.7,2.1 12.1,9.3 H 142 c -0.3,-3.8 -3.7,-5 -6.9,-5 -2.9,0 -6.3,0.8 -6.3,3.8 0,3.5 5.1,4.1 9.7,5.2 4.9,1.1 9.7,2.7 9.7,8.4 0,7 -6.6,9.3 -12.6,9.3 -6.6,0 -12.3,-2.7 -12.5,-10 z"
   id="path12"
   style="fill:#ffffff" />
		<path
   class="st0"
   d="m 160.1,429.6 h 5.9 v 4.3 h -5.9 v 18.4 c 0,2.2 0.6,2.6 3.7,2.6 h 2.2 v 4.3 h -3.7 c -5,0 -7,-1 -7,-6.5 v -18.9 h -5 v -4.3 h 5 v -8.9 h 4.9 z"
   id="path14"
   style="fill:#ffffff" />
		<path
   class="st0"
   d="m 176.4,424.3 h -4.9 v -6 h 4.9 z m -4.9,5.3 h 4.9 v 29.6 h -4.9 z"
   id="path16"
   style="fill:#ffffff" />
		<path
   class="st0"
   d="m 183.7,429.6 h 4.6 v 4.7 h 0.1 c 2,-3.7 5.4,-5.4 9.6,-5.4 7.8,0 10.2,4.5 10.2,10.8 v 19.5 h -4.9 v -20.1 c 0,-3.6 -2.3,-6 -6,-6 -5.9,0 -8.8,4 -8.8,9.3 v 16.7 h -4.9 v -29.5 z"
   id="path18"
   style="fill:#ffffff" />
		<path
   class="st0"
   d="m 240.9,456.7 c 0,9.6 -4.4,14.6 -13.8,14.6 -5.6,0 -12,-2.2 -12.3,-8.7 h 4.9 c 0.2,3.6 4.5,4.8 7.7,4.8 6.4,0 8.9,-4.6 8.9,-11.2 v -1.9 h -0.1 c -1.6,3.6 -5.5,5.4 -9.2,5.4 -8.8,0 -13.2,-6.9 -13.2,-15 0,-7 3.4,-15.6 13.7,-15.6 3.7,0 7,1.7 8.8,4.9 h -0.1 0.1 v -4.2 h 4.6 z m -4.8,-12.9 c 0,-5.2 -2.3,-10.6 -8.4,-10.6 -6.3,0 -8.8,5.1 -8.8,10.8 0,5.3 1.9,11.3 8.4,11.3 6.4,0 8.8,-5.9 8.8,-11.5 z"
   id="path20"
   style="fill:#ffffff" />
		<path
   class="st0"
   d="M 268.9,424.3 H 264 v -6 h 4.9 z m -4.9,5.3 h 4.9 v 29.6 H 264 Z"
   id="path22"
   style="fill:#ffffff" />
		<path
   class="st0"
   d="m 276.2,429.6 h 4.6 v 4.7 h 0.1 c 2.1,-3.7 5.4,-5.4 9.6,-5.4 7.8,0 10.2,4.5 10.2,10.8 v 19.5 h -4.9 v -20.1 c 0,-3.6 -2.3,-6 -6,-6 -5.9,0 -8.8,4 -8.8,9.3 v 16.7 h -4.9 v -29.5 z"
   id="path24"
   style="fill:#ffffff" />
		<path
   class="st0"
   d="m 323.4,429.6 h 4.6 v 6.3 h 0.1 c 2.4,-4.8 5.6,-7.1 10.9,-6.9 v 5.2 c -7.9,0 -10.7,4.5 -10.7,12 v 13.2 h -4.9 c 0,-0.2 0,-29.8 0,-29.8 z"
   id="path26"
   style="fill:#ffffff" />
		<path
   class="st0"
   d="m 367,459.2 h -4.6 v -4.7 h -0.1 c -2.1,3.7 -5.4,5.4 -9.6,5.4 -7.8,0 -10.2,-4.5 -10.2,-10.8 v -19.5 h 4.9 v 20.1 c 0,3.6 2.3,6 6,6 5.9,0 8.8,-4 8.8,-9.3 v -16.7 h 4.9 v 29.5 z"
   id="path28"
   style="fill:#ffffff" />
		<path
   class="st0"
   d="m 373.9,429.6 h 4.6 v 6.3 h 0.1 c 2.4,-4.8 5.6,-7.1 10.9,-6.9 v 5.2 c -7.8,0 -10.7,4.5 -10.7,12 v 13.2 h -4.9 z"
   id="path30"
   style="fill:#ffffff" />
		<path
   class="st0"
   d="m 419.2,459.1 c -0.9,0.5 -2,0.8 -3.5,0.8 -2.5,0 -4.1,-1.4 -4.1,-4.6 -2.7,3.1 -6.3,4.6 -10.4,4.6 -5.4,0 -9.8,-2.4 -9.8,-8.3 0,-6.7 5,-8.1 10,-9.1 5.4,-1 10,-0.7 10,-4.4 0,-4.2 -3.5,-4.9 -6.6,-4.9 -4.1,0 -7.2,1.3 -7.4,5.6 h -4.9 c 0.3,-7.3 6,-9.9 12.5,-9.9 5.3,0 11.1,1.2 11.1,8.1 v 15.2 c 0,2.3 0,3.3 1.5,3.3 0.4,0 0.9,-0.1 1.5,-0.3 z m -7.9,-15.2 c -1.9,1.4 -5.6,1.4 -8.8,2 -3.2,0.6 -6,1.7 -6,5.3 0,3.2 2.8,4.3 5.7,4.3 6.4,0 9.1,-4 9.1,-6.7 z"
   id="path32"
   style="fill:#ffffff" />
		<path
   class="st0"
   d="m 423.8,418.3 h 4.9 v 40.9 h -4.9 z"
   id="path34"
   style="fill:#ffffff" />
		<path
   class="st0"
   d="m 451.9,429.6 h 4.9 v 4 h 0.1 c 1.6,-3.3 5.4,-4.7 9.4,-4.7 9.1,0 13.6,7.2 13.6,15.6 0,8.4 -4.5,15.4 -13.5,15.4 -3,0 -7.4,-1.2 -9.6,-4.6 h -0.1 v 15.3 h -4.9 z m 13.7,3.6 c -6.5,0 -9.1,5.6 -9.1,11.2 0,5.8 2.6,11.2 9.3,11.2 6.6,0 8.9,-5.7 8.9,-11.5 0.1,-5.5 -2.8,-10.9 -9.1,-10.9 z"
   id="path36"
   style="fill:#ffffff" />
		<path
   class="st0"
   d="m 510.8,449.8 c -1.3,6.5 -6,10.1 -12.7,10.1 -9.5,0 -13.9,-6.5 -14.2,-15.6 0,-8.9 5.8,-15.4 13.9,-15.4 10.5,0 13.7,9.8 13.4,17 H 489 c -0.2,5.2 2.8,9.7 9.2,9.7 4,0 6.8,-1.9 7.7,-5.8 0.1,0 4.9,0 4.9,0 z m -4.7,-8.2 c -0.2,-4.6 -3.7,-8.4 -8.5,-8.4 -5.1,0 -8.1,3.8 -8.5,8.4 z"
   id="path38"
   style="fill:#ffffff" />
		<path
   class="st0"
   d="m 528.8,428.9 c 9.4,0 14.4,6.8 14.4,15.5 0,8.6 -5,15.5 -14.4,15.5 -9.4,0 -14.4,-6.8 -14.4,-15.5 0,-8.7 5,-15.5 14.4,-15.5 z m 0,26.7 c 5.1,0 9.2,-4 9.2,-11.2 0,-7.2 -4.1,-11.2 -9.2,-11.2 -5.1,0 -9.2,4 -9.2,11.2 0,7.2 4.1,11.2 9.2,11.2 z"
   id="path40"
   style="fill:#ffffff" />
		<path
   class="st0"
   d="m 548.9,429.6 h 4.9 v 4 h 0.1 c 1.6,-3.3 5.4,-4.7 9.5,-4.7 9.1,0 13.6,7.2 13.6,15.6 0,8.4 -4.5,15.4 -13.5,15.4 -3,0 -7.4,-1.2 -9.6,-4.6 h -0.1 v 15.3 h -4.9 z m 13.7,3.6 c -6.5,0 -9.1,5.6 -9.1,11.2 0,5.8 2.6,11.2 9.3,11.2 6.6,0 8.9,-5.7 8.9,-11.5 0.1,-5.5 -2.8,-10.9 -9.1,-10.9 z"
   id="path42"
   style="fill:#ffffff" />
		<path
   class="st0"
   d="m 582.8,418.3 h 4.9 v 40.9 h -4.9 z"
   id="path44"
   style="fill:#ffffff" />
		<path
   class="st0"
   d="m 620.3,449.8 c -1.3,6.5 -6,10.1 -12.7,10.1 -9.4,0 -13.9,-6.5 -14.2,-15.6 0,-8.9 5.8,-15.4 13.9,-15.4 10.5,0 13.7,9.8 13.4,17 h -22.2 c -0.2,5.2 2.8,9.7 9.2,9.7 4,0 6.8,-1.9 7.7,-5.8 0.1,0 4.9,0 4.9,0 z m -4.7,-8.2 c -0.2,-4.6 -3.7,-8.4 -8.5,-8.4 -5.1,0 -8.1,3.8 -8.5,8.4 z"
   id="path46"
   style="fill:#ffffff" />
	</g>
	<g
   id="g54"
   style="fill:#ffffff">
		<g
   id="g52"
   style="fill:#ffffff">
			<path
   class="st0"
   d="m 171.7,372.3 h 22.6 v -88.7 h -22.6 c 0,0 0,88.7 0,88.7 z m 38.7,0 h 21.7 v -33.8 h 25.8 v -19.9 h -25.8 v -15.1 h 26.8 v -19.9 h -48.5 z m 106.2,-12.8 4.3,12.8 h 24.6 l -35.2,-88.7 h -17.8 l -35.6,88.7 h 24.3 l 4.7,-12.8 c -0.1,0 30.7,0 30.7,0 z m -15.5,-48.4 h 0.2 0.1 l 9.1,30.4 H 292 Z m 52.3,61.2 h 31 c 33.7,0 45.7,-20.4 45.7,-44.6 0,-9.7 -2,-19.2 -8.2,-27.6 -11.5,-16.5 -29.2,-16.5 -39.2,-16.5 h -29.4 v 88.7 z M 376,303.5 h 9.8 c 10.1,0 14.6,4.2 17.3,8.2 3.2,5 4.3,11.4 4.3,16.4 0,12.6 -4.8,24.3 -21.7,24.3 H 376 c 0,0 0,-48.9 0,-48.9 z"
   id="path50"
   style="fill:#ffffff" />
		</g>
	</g>
	<g
   id="g72"
   style="fill:#ffffff">
		<path
   class="st0"
   d="M 114.1,232.3 Z"
   id="path56"
   style="fill:#ffffff" />
		<path
   class="st0"
   d="M 57.6,232.3 Z"
   id="path58"
   style="fill:#ffffff" />
		<path
   class="st0"
   d="m 85.8,232.5 c -1.2,-1.6 -1.7,-2.6 -3.1,-4 -1.3,-1.3 -2.1,-2 -3.7,-3 -1.1,-0.7 -1.8,-0.9 -2.9,-1.5 -1.3,-0.8 -2.1,-1.3 -3.2,-2.3 -1.1,-1 -1.7,-1.7 -2.6,-3 -1.2,-1.7 -1.9,-2.7 -2.6,-4.6 -0.7,-1.7 -0.9,-2.7 -1.2,-4.4 -0.2,-1.8 -0.2,-2.9 0.1,-4.8 0.2,-1.4 0.4,-2.2 0.8,-3.5 0.3,-0.8 0.4,-1.3 0.8,-2 0.4,-0.7 0.6,-1 1.2,-1.6 v -27.7 h 1.7 v 28.2 0 c 0.1,1.5 0,2.5 0.3,4 0.3,1.4 0.6,2.2 1.4,3.4 0.9,1.3 1.5,2.1 2.9,2.9 0.7,0.5 1.1,0.8 2,1 0.4,0.1 1,0 1,0 -0.4,-1.3 -0.7,-2.9 -0.7,-4.7 0,-1.9 0.2,-3.7 0.7,-5 v -29.8 0 h 1.7 v 27.1 0 l 0.1,-0.1 v 0 c 0.5,-0.5 0.7,-0.9 1.2,-1.3 0.5,-0.4 0.7,-0.6 1.2,-0.8 0.5,-0.3 0.8,-0.4 1.3,-0.5 0.6,-0.2 1.6,-0.2 1.6,-0.2 0,0 1,0 1.6,0.2 0.5,0.1 0.8,0.3 1.3,0.5 0.5,0.3 0.8,0.5 1.2,0.8 0.5,0.5 0.7,0.8 1.2,1.3 v 0 l 0.1,0.1 v 0 -27.1 h 1.7 v 0 29.9 c 0.5,1.3 0.7,3.1 0.7,5 0,1.8 -0.3,3.4 -0.7,4.7 0,0 0.7,0 1.1,0 0.9,-0.2 1.2,-0.5 2,-1 1.3,-0.8 2,-1.5 2.9,-2.9 0.8,-1.2 1,-2 1.4,-3.4 0.4,-1.5 0.2,-2.4 0.3,-4 v 0 -28.2 h 1.7 v 27.7 c 0.5,0.5 0.8,0.9 1.2,1.6 0.4,0.8 0.5,1.2 0.8,2 0.4,1.3 0.6,2.1 0.8,3.5 0.2,1.8 0.3,2.9 0.1,4.8 -0.2,1.8 -0.5,2.8 -1.1,4.4 -0.8,1.9 -1.4,2.9 -2.7,4.6 -0.9,1.2 -1.4,1.9 -2.6,3 -1.1,1 -1.9,1.5 -3.2,2.3 -1.1,0.7 -1.8,0.8 -2.9,1.5 -1.6,1 -2.4,1.7 -3.7,3 -1.5,1.3 -2,2.3 -3.2,3.9 z"
   id="path60"
   style="fill:#ffffff" />
		<path
   class="st0"
   d="m 85.8,256.3 c -2.3,-3.9 -5.5,-7.2 -9.2,-9.7 0,0 -1.4,-1 -5.1,-3 -2.9,-1.7 -4.8,-3.7 -6.5,-5.8 -9.7,-14.4 -4.4,-27.4 -3.4,-27.2 l 0.1,-0.1 -0.1,0.1 v -40.4 0 h 1.7 v 43.6 0 c 0,0 -0.8,5 6.8,8.4 4.9,2.2 11.4,8.1 15.8,15.6 4.4,-7.6 10.9,-13.5 15.8,-15.6 7.6,-3.4 6.8,-8.4 6.8,-8.4 v 0 -43.6 h 1.6 v 0 40.4 l -0.1,-0.1 0.1,0.1 c 1,-0.3 6.3,12.8 -3.4,27.2 -1.7,2.1 -3.6,4.1 -6.6,5.8 -3.6,2 -5.1,3 -5.1,3 -3.7,2.5 -6.9,5.8 -9.2,9.7 z"
   id="path62"
   style="fill:#ffffff" />
		<path
   class="st0"
   d="m 85.8,280.4 c 0,0 -2.4,-7.8 -11.5,-11.2 C 43.5,257.8 54.7,233.6 55.8,232.5 v -62.3 h 1.7 v 62.1 0 c 0.1,0.7 0.2,2.5 0.9,4.4 0.9,2.4 2.5,5 4,6 3.8,2.3 6.4,2.8 9.9,4.7 3.2,1.7 7.2,4.4 13.3,11.5 6.2,-7.1 10.2,-9.8 13.3,-11.5 3.6,-1.9 6.2,-2.4 9.9,-4.7 1.6,-1 3.1,-3.6 4,-6 0.7,-1.9 0.9,-3.7 0.9,-4.4 v 0 -62.1 h 1.7 v 62.3 c 1.1,1.1 12.3,25.3 -18.5,36.7 -8.7,3.3 -11.1,11.2 -11.1,11.2 z"
   id="path64"
   style="fill:#ffffff" />
		<path
   class="st0"
   d="m 40.9,372.3 h -20 v -17.6 h 19.9 c 8.7,0 15.8,-7.1 15.8,-15.8 v -55.2 h 17 v 55.8 c 0.1,18.1 -14.6,32.8 -32.7,32.8 z"
   id="path66"
   style="fill:#ffffff" />
		<path
   class="st0"
   d="m 130.9,372.3 h 20 V 354.7 H 131 c -8.7,0 -15.8,-7.1 -15.8,-15.8 v -55.2 h -17 v 55.8 c -0.1,18.1 14.5,32.8 32.7,32.8 z"
   id="path68"
   style="fill:#ffffff" />
		<path
   class="st0"
   d="M 40.6,393.6 H 20.9 V 376 h 19.9 c 22.6,0 36.6,-17.7 36.6,-37.1 v -55.2 h 17 v 55.8 c 0,29.3 -23.3,54.1 -53.8,54.1 z"
   id="path70"
   style="fill:#ffffff" />
	</g>
</g>
</svg>
